<svg width="134" height="114" viewBox="0 0 134 114" fill="none" xmlns="http://www.w3.org/2000/svg">
<path d="M28.6432 48.3135C28.6432 58.2546 36.7021 66.3135 46.6432 66.3135L73.6433 66.3135C76.4047 66.3135 78.6433 64.0749 78.6433 61.3135L78.6432 27.3135C78.6432 21.7906 74.1661 17.3135 68.6432 17.3135L33.6432 17.3135C30.8818 17.3135 28.6432 19.5521 28.6432 22.3135L28.6432 48.3135Z" fill="#FFF1DA"/>
<path d="M76.8722 62.2812C75.53 62.3709 74.2433 62.7533 73.0919 63.4043C70.0883 65.0451 68.4709 67.8689 69.4795 69.711C70.4882 71.553 73.7407 71.7153 76.7443 70.0746C77.9142 69.4573 78.9307 68.5819 79.7313 67.5027C80.1012 66.9782 80.1231 66.2455 79.7875 65.6342L78.4772 63.2412C78.1435 62.6286 77.5137 62.2523 76.8722 62.2812Z" fill="#D5D6DB"/>
<path d="M69.0828 35.2809C68.1096 35.3461 67.1765 35.6236 66.3415 36.0958C64.164 37.2852 62.9905 39.3327 63.7213 40.6673C64.4521 42.002 66.8114 42.1196 68.9886 40.9302C69.8368 40.4822 70.5738 39.8471 71.1545 39.0644C71.4223 38.6842 71.4381 38.1533 71.1949 37.7102L70.2461 35.9774C70.0044 35.5333 69.548 35.26 69.0828 35.2809Z" fill="#D5D6DB"/>
<path d="M56.2346 34.434C56.0128 34.3676 55.7827 34.3896 55.5892 34.4953L50.485 37.2732C50.058 37.5046 49.9204 38.0733 50.178 38.5438C50.237 38.6515 50.3141 38.7484 50.4051 38.8287L64.3269 51.1814L81.3468 41.9184L56.2346 34.434Z" fill="#029BC5"/>
<path d="M112.994 39.2788L65.1022 67.4838L36.2411 75.8647L21.2912 76.4966L19.4041 72.7473L99.3094 26.9568C101.69 25.5842 104.402 24.989 107.17 25.2319C108.382 25.3462 109.591 25.6336 110.767 26.0869C111.81 26.4791 112.81 27.0356 113.739 27.7399C114.776 28.535 116.683 28.9802 117.374 30.2922C117.376 30.2907 119.177 36.042 112.994 39.2788V39.2788Z" fill="#E1E6E9"/>
<path d="M64.2916 59.4002L45.4164 94.7263C45.1847 95.2289 45.3853 95.8784 45.8641 96.1771C46.1579 96.3604 46.5035 96.3751 46.7825 96.2163L51.9884 93.2599C52.9897 92.6909 53.8566 91.8918 54.5357 90.912L92.4746 42.4539L64.2916 59.4002Z" fill="#029BC5"/>
<path d="M11.6986 59.0384C11.3424 58.8498 10.9339 58.843 10.6021 59.02L6.4362 61.2422C5.86855 61.5446 5.6866 62.2865 6.02966 62.8994C6.095 63.016 6.17671 63.1228 6.27215 63.2158L19.2929 75.9289L31.5769 69.5526L11.6986 59.0384Z" fill="#029BC5"/>
<path d="M22.5017 76.5058L16.3971 86.2958C16.3074 86.4361 16.3442 86.6407 16.4792 86.7525C16.5766 86.833 16.7031 86.8459 16.8012 86.7853L20.8328 84.4815C20.8641 84.4636 20.8919 84.439 20.9143 84.4091L29.9751 72.2407L22.5017 76.5058Z" fill="#029BC5"/>
<path d="M110.648 25.3941C109.466 24.9723 108.252 24.7065 107.034 24.6024C105.967 26.2412 105.347 28.1877 105.236 30.2479C105.246 30.6676 105.574 31.0283 105.968 31.0534C106.091 31.0611 106.21 31.0353 106.315 30.9781L113.634 26.9352C112.7 26.2776 111.695 25.7587 110.648 25.3941Z" fill="#029BC5"/>
<path d="M94.1701 33.2751L98.7255 30.9421L103.764 39.615L99.2084 41.948L94.1701 33.2751Z" fill="#D5D6DB"/>
<path d="M90.9595 37.0149C90.408 37.2965 90.2335 38.0015 90.5703 38.5893L91.1159 39.5417C91.471 40.1195 92.1966 40.3436 92.7367 40.0421C93.2507 39.7549 93.4151 39.0907 93.1124 38.522L92.5669 37.5696C92.2304 36.9822 91.511 36.7338 90.9595 37.0149V37.0149Z" fill="#3A556A"/>
<path d="M86.4951 39.7873C85.9436 40.069 85.7691 40.7739 86.1059 41.3618L86.6514 42.3141C87.0065 42.892 87.7322 43.1161 88.2723 42.8145C88.7863 42.5273 88.9506 41.8631 88.648 41.2944L88.1025 40.342C87.7658 39.7548 87.0464 39.5064 86.4951 39.7873V39.7873Z" fill="#3A556A"/>
<path d="M82.0293 42.5604C81.4785 42.8427 81.3048 43.5469 81.6413 44.1342L82.1868 45.0866C82.5419 45.6644 83.2675 45.8884 83.8077 45.5869C84.3217 45.2997 84.486 44.6356 84.1834 44.0669L83.6379 43.1145C83.3011 42.5267 82.581 42.2786 82.0293 42.5604V42.5604Z" fill="#3A556A"/>
<path d="M77.565 45.3328C77.0142 45.6151 76.8405 46.3193 77.177 46.9067L77.7226 47.8591C78.0777 48.4369 78.8033 48.661 79.3434 48.3595C79.8574 48.0722 80.0218 47.4081 79.7192 46.8393L79.1736 45.887C78.8366 45.2992 78.1165 45.0512 77.565 45.3328V45.3328Z" fill="#3A556A"/>
<path d="M73.1005 48.105C72.5497 48.3871 72.376 49.0909 72.7125 49.6779L73.258 50.6297C73.5944 51.2165 74.3137 51.4641 74.8648 51.1829C75.4159 50.9017 75.5899 50.198 75.2536 49.6113L74.708 48.6595C74.3724 48.0724 73.6532 47.824 73.1017 48.1044C73.1012 48.1047 73.101 48.1048 73.1005 48.105Z" fill="#3A556A"/>
<path d="M68.6361 50.8775C68.0852 51.1596 67.9116 51.8634 68.248 52.4504L68.7936 53.4022C69.13 53.9889 69.8493 54.2366 70.4004 53.9554C70.9514 53.6741 71.1255 52.9705 70.7892 52.3837L70.2436 51.4319C69.9079 50.8448 69.1888 50.5964 68.6373 50.8769C68.6368 50.8771 68.6363 50.8774 68.6361 50.8775Z" fill="#3A556A"/>
<path d="M64.1715 53.6501C63.6206 53.9322 63.447 54.636 63.7834 55.223L64.329 56.1748C64.6661 56.7612 65.3857 57.0077 65.9361 56.7259C66.4856 56.4445 66.6593 55.7423 66.3243 55.1564L65.7787 54.2046C65.4425 53.6175 64.7231 53.3692 64.1715 53.6501Z" fill="#3A556A"/>
<path d="M59.7069 56.4226C59.156 56.7048 58.9823 57.4085 59.3188 57.9956L59.8644 58.9474C60.2014 59.5338 60.9211 59.7804 61.4715 59.4985C62.0209 59.2171 62.1946 58.5149 61.8597 57.929L61.3141 56.9772C60.9779 56.3901 60.2584 56.1418 59.7069 56.4226Z" fill="#3A556A"/>
<path d="M55.2426 59.195C54.6917 59.4771 54.5181 60.1809 54.8545 60.7679L55.4001 61.7197C55.7372 62.3061 56.4568 62.5527 57.0072 62.2708C57.5567 61.9894 57.7304 61.2872 57.3954 60.7014L56.8499 59.7496C56.5134 59.1625 55.794 58.9143 55.2426 59.195Z" fill="#3A556A"/>
<path d="M50.7768 61.9683C50.2257 62.2495 50.0517 62.9532 50.388 63.54L50.3887 63.5412L50.9343 64.4931C51.2713 65.0795 51.991 65.3261 52.5414 65.0442C53.0908 64.7628 53.2645 64.0606 52.9296 63.4747L52.384 62.5229C52.0478 61.9357 51.3284 61.6874 50.7768 61.9683Z" fill="#3A556A"/>
<path d="M46.3136 64.7399C45.7625 65.0212 45.5885 65.7248 45.9248 66.3116L45.9255 66.3128L46.4711 67.2646C46.8082 67.851 47.5278 68.0976 48.0782 67.8157C48.6277 67.5344 48.8014 66.8322 48.4665 66.2463L47.9209 65.2945C47.5844 64.7075 46.865 64.4592 46.3136 64.7399Z" fill="#3A556A"/>
</svg>
